@startuml

interface AbstractFactory
interface AbstractProductA
interface AbstractProductB

AbstractFactory <|-- ConcreteFactory1
AbstractFactory <|-- ConcreteFactory2

AbstractProductA <|-- ProductA1
AbstractProductA <|-- ProductA2

AbstractProductB <|-- ProductB1
AbstractProductB <|-- ProductB2

ProductA1 <.. ConcreteFactory1
ProductB1 <.. ConcreteFactory1

ProductA2 <.. ConcreteFactory2
ProductB2 <.. ConcreteFactory2

interface AbstractFactory {
+createProductA()
+createProductB()
}

@enduml
